<?xml version="1.0" standalone="no"?>
<!DOCTYPE svg PUBLIC "-//W3C//DTD SVG 20010904//EN"
 "http://www.w3.org/TR/2001/REC-SVG-20010904/DTD/svg10.dtd">
<svg version="1.0" xmlns="http://www.w3.org/2000/svg"
 width="1169.000000pt" height="198.000000pt" viewBox="0 0 1169.000000 198.000000"
 preserveAspectRatio="xMidYMid meet">
<metadata>
Created by potrace 1.14, written by Peter Selinger 2001-2017
</metadata>
<g transform="translate(0.000000,198.000000) scale(0.100000,-0.100000)"
fill="#000000" stroke="none">
<path d="M621 1955 c-384 -84 -633 -365 -581 -657 43 -234 253 -369 685 -438
220 -35 329 -72 394 -133 108 -103 70 -239 -89 -311 -106 -48 -264 -54 -357
-14 -87 38 -152 109 -174 190 l-10 38 -243 0 -244 0 5 -42 c44 -353 434 -610
887 -585 430 24 777 290 776 596 -1 205 -104 374 -286 468 -133 69 -284 107
-624 158 -208 31 -276 99 -221 221 26 58 93 111 169 134 152 47 368 -2 424
-96 l20 -34 222 0 c123 0 225 2 228 5 3 3 1 31 -4 61 -27 173 -182 327 -405
403 -147 50 -426 67 -572 36z"/>
<path d="M8648 1960 c-426 -72 -772 -450 -806 -880 -19 -237 34 -449 161 -643
140 -212 359 -360 622 -418 36 -8 116 -13 200 -13 117 1 156 6 239 27 185 49
359 154 484 292 34 39 62 72 62 75 -1 3 -77 53 -169 113 l-169 107 -69 -51
c-120 -92 -231 -131 -376 -132 -150 -1 -276 46 -381 143 -122 112 -180 244
-180 405 0 185 81 345 227 449 214 152 492 138 721 -36 l60 -45 155 100 c86
54 162 105 170 112 12 11 -1 28 -80 108 -156 157 -313 243 -519 282 -79 16
-272 18 -352 5z"/>
<path d="M2040 985 l0 -935 704 0 703 0 -2 193 c-2 105 -3 195 -4 200 -1 4
-215 7 -476 7 l-475 0 0 165 0 165 203 0 c111 0 280 3 375 7 l172 6 0 194 c0
177 -1 193 -17 193 -10 0 -179 0 -375 0 l-358 0 0 170 0 170 475 0 475 0 0
200 0 200 -700 0 -700 0 0 -935z"/>
<path d="M4582 1883 c-10 -21 -23 -47 -30 -58 -6 -11 -118 -236 -248 -500
-130 -264 -324 -657 -430 -872 -107 -216 -194 -395 -194 -398 0 -3 112 -5 248
-5 l248 0 61 130 61 130 456 0 456 0 65 -130 65 -130 246 0 c135 0 243 3 241
8 -2 4 -203 424 -447 935 l-443 927 -168 0 -169 0 -18 -37z m320 -918 l134
-290 -269 -3 c-149 -1 -272 -1 -274 1 -2 2 20 55 48 118 43 97 144 328 196
448 8 19 18 30 23 25 5 -5 69 -139 142 -299z"/>
<path d="M6040 985 l0 -935 225 0 225 0 2 232 3 233 166 3 167 2 153 -234 154
-235 278 -1 c220 0 277 3 271 13 -5 6 -93 128 -197 271 -104 142 -191 264
-194 271 -2 8 19 29 51 50 118 78 213 213 252 356 25 95 23 270 -5 378 -56
212 -188 380 -366 466 -127 61 -168 65 -705 65 l-480 0 0 -935z m950 454 c168
-76 222 -284 108 -414 -75 -85 -148 -105 -363 -100 -71 1 -156 3 -187 4 l-58
1 0 265 0 265 228 0 c206 0 231 -2 272 -21z"/>
<path d="M9970 985 l0 -935 225 0 225 0 2 343 3 342 408 3 407 2 0 -345 0
-345 225 0 225 0 0 935 0 935 -225 0 -225 0 0 -390 0 -390 -410 0 -410 0 0
390 0 390 -225 0 -225 0 0 -935z"/>
</g>
</svg>
